# NavMesh OBJ Export (coordinates in meters, Recast coordinate system)
# Vertices: 245, Triangles: 172

v 23.559999 0.093242 9.880000
v 23.559999 0.093242 10.639999
v 22.230000 0.093242 10.450000
v 22.799999 0.093242 9.880000
v 23.369999 2.493242 -23.180000
v 23.369999 2.493242 -22.799999
v 19.760000 2.493242 -22.799999
v 19.760000 2.493242 -23.180000
v 22.609999 0.093242 -20.330000
v 22.609999 0.093242 -19.760000
v 19.760000 0.093242 -19.760000
v 19.760000 0.093242 -20.330000
v 9.880000 0.093242 9.880000
v 9.880000 0.093242 11.590000
v 0.380000 0.093242 11.590000
v 0.380000 0.093242 9.880000
v 13.870000 0.093242 10.830000
v 17.670000 0.093242 10.830000
v 17.670000 0.093242 11.590000
v 9.880000 0.093242 11.590000
v 9.880000 0.093242 9.880000
v 12.920000 0.093242 9.880000
v 9.880000 0.093242 -23.559999
v 9.880000 0.093242 -20.139999
v 8.930000 0.093242 -19.760000
v 0.380000 0.093242 -19.760000
v 0.380000 0.093242 -23.559999
v 11.400000 0.093242 -23.559999
v 11.590000 0.093242 -21.850000
v 16.150000 0.093242 -21.850000
v 16.150000 0.093242 -19.760000
v 14.440000 0.093242 -19.760000
v 14.440000 0.093242 -21.090000
v 13.870000 0.093242 -21.660000
v 11.400000 0.093242 -21.660000
v 10.830000 0.093242 -21.090000
v 10.830000 0.093242 -19.949999
v 9.880000 0.093242 -20.139999
v 9.880000 0.093242 -23.559999
v 19.760000 2.493242 -23.180000
v 19.760000 2.493242 -22.799999
v 12.350000 2.493242 -22.799999
v 12.350000 2.493242 -23.180000
v 13.490000 0.093242 -19.760000
v 11.780000 0.093242 -19.760000
v 11.970000 0.093242 -20.709999
v 13.300000 0.093242 -20.709999
v 19.760000 0.093242 -20.330000
v 19.760000 0.093242 -19.760000
v 18.050000 0.093242 -19.760000
v 18.050000 0.093242 -20.330000
v 22.609999 0.093242 1.330000
v 22.609999 0.093242 8.550000
v 21.470000 0.093242 9.690000
v 19.760000 0.093242 9.690000
v 19.760000 0.093242 0.000000
v 21.090000 0.093242 0.000000
v 23.559999 0.093242 9.120000
v 23.559999 0.093242 9.880000
v 22.799999 0.093242 9.880000
v 20.330000 8.693241 4.940000
v 20.330000 8.693241 7.030000
v 19.760000 8.693241 7.030000
v 19.760000 8.693241 4.940000
v 22.609999 0.093242 -19.760000
v 22.419999 0.093242 -14.820000
v 19.760000 0.093242 -14.820000
v 19.760000 0.093242 -19.760000
v 20.900000 0.093242 -11.400000
v 20.900000 0.093242 -9.880000
v 19.760000 0.093242 -9.880000
v 19.760000 0.093242 -11.400000
v 21.470000 9.393241 -19.760000
v 21.470000 9.393241 -16.910000
v 19.760000 9.393241 -16.910000
v 19.760000 9.393241 -19.760000
v 20.330000 11.293241 -10.639999
v 20.330000 11.293241 -9.880000
v 19.760000 11.293241 -9.880000
v 19.760000 11.293241 -10.639999
v 9.880000 0.093242 0.000000
v 9.880000 0.093242 0.380000
v 8.930000 0.093242 0.380000
v 8.550000 0.093242 0.760000
v 8.550000 0.093242 3.040000
v 9.880000 0.093242 3.230000
v 9.880000 0.093242 9.880000
v 3.610000 0.093242 9.880000
v 3.610000 0.093242 7.220000
v 4.180000 0.093242 6.840000
v 4.180000 0.093242 5.510000
v 3.800000 0.093242 5.130000
v 2.470000 0.093242 5.130000
v 1.900000 0.093242 6.080000
v 0.380000 0.093242 6.080000
v 0.380000 0.093242 0.000000
v 1.900000 0.093242 6.650000
v 2.470000 0.093242 7.220000
v 0.380000 0.093242 9.880000
v 20.900000 0.093242 -9.880000
v 20.900000 0.093242 -5.510000
v 19.760000 0.093242 -5.510000
v 19.760000 0.093242 -9.880000
v 22.419999 0.093242 -4.180000
v 22.609999 0.093242 -0.190000
v 21.280000 0.093242 -1.520000
v 19.760000 0.093242 -1.520000
v 19.760000 0.093242 -4.180000
v 21.090000 0.093242 0.000000
v 19.760000 0.093242 0.000000
v 19.760000 0.093242 -0.570000
v 20.710000 0.093242 -0.570000
v 20.330000 11.293241 -9.880000
v 20.330000 11.293241 -6.460000
v 19.760000 11.293241 -6.460000
v 19.760000 11.293241 -9.880000
v 8.740000 0.093242 -17.670000
v 9.880000 0.093242 -16.910000
v 9.880000 0.093242 -9.880000
v 0.380000 0.093242 -9.880000
v 0.380000 0.093242 -19.760000
v 8.930000 0.093242 -19.760000
v 19.760000 0.093242 0.000000
v 19.760000 0.093242 9.690000
v 14.250000 0.093242 9.690000
v 13.490000 0.093242 8.929999
v 13.490000 0.093242 4.560000
v 15.010000 0.093242 3.040000
v 16.530000 0.093242 3.040000
v 16.720000 0.093242 1.330000
v 18.240000 0.093242 0.000000
v 15.770000 0.693242 0.000000
v 15.770000 0.693242 0.950000
v 14.820000 0.693242 1.900000
v 14.630000 0.693242 0.000000
v 13.490000 0.093242 2.470000
v 13.870000 0.093242 2.850000
v 12.540000 0.093242 3.990000
v 12.540000 0.093242 9.500000
v 12.920000 0.093242 9.880000
v 9.880000 0.093242 9.880000
v 9.880000 0.093242 3.230000
v 11.400000 0.093242 3.040000
v 11.400000 0.093242 1.140000
v 10.640000 0.093242 0.380000
v 9.880000 0.093242 0.380000
v 9.880000 0.093242 0.000000
v 13.680000 0.093242 0.000000
v 19.760000 8.693241 4.940000
v 19.760000 8.693241 7.030000
v 15.580000 8.693241 7.030000
v 15.580000 8.693241 4.940000
v 19.760000 0.093242 -19.760000
v 19.760000 0.093242 -14.820000
v 18.050000 0.093242 -14.820000
v 18.050000 0.093242 -19.760000
v 16.150000 0.093242 -19.760000
v 16.150000 0.093242 -16.910000
v 15.580000 0.093242 -16.719999
v 15.580000 0.093242 -15.009999
v 16.150000 0.093242 -14.820000
v 16.720000 0.093242 -13.490000
v 14.820000 0.093242 -13.490000
v 14.250000 0.093242 -12.920000
v 12.920000 0.093242 -13.299999
v 12.920000 0.093242 -14.820000
v 12.540000 0.093242 -15.200000
v 11.590000 0.093242 -15.200000
v 11.590000 0.093242 -17.100000
v 11.970000 0.093242 -17.289999
v 11.970000 0.093242 -18.049999
v 13.870000 0.093242 -18.049999
v 14.440000 0.093242 -18.619999
v 14.440000 0.093242 -19.760000
v 13.490000 0.093242 -19.760000
v 13.300000 0.093242 -19.000000
v 11.970000 0.093242 -19.000000
v 11.780000 0.093242 -19.760000
v 10.830000 0.693242 -19.000000
v 11.020000 0.693242 -18.619999
v 11.020000 0.693242 -18.049999
v 9.880000 0.693242 -18.049999
v 9.880000 0.693242 -19.000000
v 10.640000 0.093242 -14.820000
v 10.640000 0.093242 -12.920000
v 11.020000 0.093242 -12.540000
v 12.350000 0.093242 -12.540000
v 14.060000 0.093242 -9.880000
v 9.880000 0.093242 -9.880000
v 9.880000 0.093242 -16.910000
v 19.760000 0.093242 -11.400000
v 19.760000 0.093242 -9.880000
v 15.010000 0.093242 -9.880000
v 15.010000 0.093242 -11.400000
v 19.760000 9.393241 -19.760000
v 19.760000 9.393241 -16.910000
v 18.240000 9.393241 -16.910000
v 18.240000 9.393241 -19.760000
v 19.760000 11.293241 -10.639999
v 19.760000 11.293241 -9.880000
v 16.910000 11.293241 -9.880000
v 16.910000 11.293241 -10.639999
v 9.880000 0.093242 -9.880000
v 9.880000 0.093242 0.000000
v 0.380000 0.093242 0.000000
v 0.380000 0.093242 -9.880000
v 19.760000 0.093242 -9.880000
v 19.760000 0.093242 -5.510000
v 16.150000 0.093242 -5.510000
v 15.010000 0.093242 -6.650000
v 15.010000 0.093242 -9.880000
v 14.060000 0.093242 -9.880000
v 14.250000 0.093242 -5.890000
v 12.160000 0.093242 -4.180000
v 11.780000 0.093242 -4.560000
v 10.450000 0.093242 -4.560000
v 10.070000 0.093242 -4.180000
v 10.070000 0.093242 -2.280000
v 10.450000 0.093242 -1.900000
v 11.590000 0.093242 -1.900000
v 11.590000 0.093242 0.000000
v 9.880000 0.093242 0.000000
v 9.880000 0.093242 -9.880000
v 15.960000 0.093242 -4.180000
v 19.760000 0.093242 -4.180000
v 19.760000 0.093242 -1.520000
v 18.050000 0.093242 -1.520000
v 16.910000 0.093242 -0.190000
v 16.530000 0.093242 -1.330000
v 14.250000 0.093242 -1.520000
v 13.490000 0.093242 -0.760000
v 13.680000 0.093242 0.000000
v 12.350000 0.093242 -2.470000
v 19.760000 0.093242 -0.570000
v 19.760000 0.093242 0.000000
v 18.240000 0.093242 0.000000
v 18.620000 0.093242 -0.570000
v 15.770000 0.693242 -0.380000
v 15.770000 0.693242 0.000000
v 14.630000 0.693242 0.000000
v 14.630000 0.693242 -0.380000
v 19.760000 11.293241 -9.880000
v 19.760000 11.293241 -6.460000
v 16.910000 11.293241 -6.460000
v 16.910000 11.293241 -9.880000

f 4 2 1
f 2 4 3
f 7 6 8
f 8 6 5
f 11 10 12
f 12 10 9
f 15 14 16
f 16 14 13
f 22 20 17
f 20 22 21
f 19 17 20
f 17 19 18
f 26 25 27
f 27 25 23
f 23 25 24
f 38 36 39
f 36 38 37
f 33 31 30
f 31 33 32
f 35 39 36
f 39 35 28
f 33 30 34
f 34 29 35
f 29 34 30
f 29 28 35
f 42 41 43
f 43 41 40
f 46 45 47
f 47 45 44
f 50 49 51
f 51 49 48
f 57 56 52
f 52 55 53
f 53 55 54
f 55 52 56
f 59 58 60
f 63 62 64
f 64 62 61
f 68 66 65
f 66 68 67
f 71 70 72
f 72 70 69
f 75 74 76
f 76 74 73
f 79 78 80
f 80 78 77
f 83 81 96
f 81 83 82
f 95 93 96
f 93 95 94
f 89 88 90
f 90 85 91
f 93 92 96
f 85 87 86
f 87 90 88
f 90 87 85
f 84 92 85
f 85 92 91
f 92 84 96
f 84 83 96
f 94 95 97
f 88 98 99
f 99 97 95
f 97 99 98
f 89 98 88
f 102 101 103
f 103 101 100
f 105 104 106
f 108 106 104
f 106 108 107
f 112 110 109
f 110 112 111
f 115 114 116
f 116 114 113
f 120 117 121
f 117 119 118
f 119 117 120
f 122 121 117
f 123 131 129
f 129 123 130
f 130 123 131
f 125 127 126
f 127 129 128
f 129 127 125
f 129 124 123
f 124 129 125
f 135 133 132
f 133 135 134
f 147 145 148
f 145 147 146
f 143 136 144
f 136 138 137
f 138 136 143
f 140 139 141
f 139 138 141
f 141 138 142
f 142 138 143
f 148 144 136
f 144 148 145
f 151 150 152
f 152 150 149
f 155 154 156
f 156 154 153
f 163 161 160
f 161 163 162
f 159 173 172
f 173 158 157
f 158 173 159
f 165 163 166
f 163 165 164
f 171 170 172
f 174 173 157
f 168 167 169
f 170 167 166
f 167 170 169
f 172 166 159
f 159 166 160
f 160 166 163
f 166 172 170
f 177 176 178
f 178 176 175
f 182 180 183
f 183 180 179
f 180 182 181
f 164 187 188
f 187 164 165
f 168 190 184
f 190 168 169
f 186 185 189
f 190 185 184
f 185 190 189
f 189 187 186
f 187 189 188
f 193 192 194
f 194 192 191
f 197 196 198
f 198 196 195
f 201 200 202
f 202 200 199
f 205 204 206
f 206 204 203
f 207 209 208
f 209 207 210
f 210 207 211
f 221 219 222
f 219 221 220
f 217 216 223
f 219 218 222
f 214 213 215
f 223 213 212
f 213 223 215
f 215 223 216
f 222 218 223
f 223 218 217
f 224 227 225
f 227 229 228
f 229 227 224
f 232 231 221
f 233 231 230
f 231 220 221
f 220 231 233
f 224 230 229
f 230 224 233
f 233 224 214
f 214 224 213
f 226 225 227
f 237 235 234
f 235 237 236
f 240 239 241
f 241 239 238
f 244 243 245
f 245 243 242
