# NavMesh OBJ Export (coordinates in meters, Recast coordinate system)
# Vertices: 280, Triangles: 185

v 10.640000 -0.005478 9.880000
v 10.640000 -0.005478 12.540000
v 9.880000 -0.005478 12.540000
v 9.880000 -0.005478 9.880000
v 10.450000 -0.005478 -12.540000
v 10.450000 -0.005478 -9.880000
v 9.880000 -0.005478 -9.880000
v 9.880000 -0.005478 -12.540000
v -9.880000 0.094522 9.880000
v -9.880000 0.194522 12.540000
v -14.440000 0.094522 12.540000
v -14.440000 0.094522 9.880000
v -14.060000 0.094522 9.880000
v -14.250000 0.094522 11.969999
v -11.970000 0.094522 12.160000
v -11.970000 0.094522 9.880000
v -12.730000 0.094522 10.830000
v -12.730000 0.094522 11.210000
v -13.300000 0.094522 11.210000
v -13.300000 0.094522 10.830000
v -11.020000 -0.005478 -10.639999
v -10.450000 -0.005478 -10.450000
v -10.450000 -0.005478 -9.880000
v -11.780000 -0.005478 -9.880000
v -11.970000 -0.005478 -11.969999
v -14.060000 -0.005478 -11.969999
v -14.250000 -0.005478 -9.880000
v -14.440000 -0.005478 -9.880000
v -14.440000 -0.005478 -12.540000
v -10.830000 -0.005478 -12.540000
v -9.880000 2.494522 -11.400000
v -10.260000 2.294522 -11.590000
v -9.880000 2.494522 -11.590000
v -12.730000 -0.005478 -11.020000
v -12.730000 -0.005478 -10.639999
v -13.300000 -0.005478 -10.639999
v -13.300000 -0.005478 -11.020000
v 10.450000 0.194522 0.000000
v 10.640000 -0.005478 9.880000
v 9.880000 -0.005478 9.880000
v 9.880000 0.194522 0.000000
v 10.545000 0.294522 4.940000
v 9.880000 0.294522 4.940000
v 10.450000 -0.005478 -9.880000
v 10.450000 0.194522 0.000000
v 9.880000 0.194522 0.000000
v 9.880000 -0.005478 -9.880000
v 10.450000 0.294522 -4.940000
v 9.880000 0.294522 -4.940000
v 9.880000 -0.005478 9.880000
v 9.880000 -0.005478 12.540000
v 4.180000 0.194522 12.540000
v 3.800000 0.294522 12.349999
v 3.800000 -0.005478 9.880000
v 2.850000 -0.005478 9.880000
v 2.850000 -0.005478 11.590000
v -0.000000 -0.005478 11.590000
v -0.000000 -0.005478 9.880000
v 2.850000 3.994522 9.880000
v 2.850000 3.994522 11.590000
v -0.000000 3.994522 11.590000
v -0.000000 3.994522 9.880000
v 9.880000 -0.005478 -12.540000
v 9.880000 -0.005478 -9.880000
v 3.800000 0.094522 -9.880000
v 3.800000 0.294522 -12.349999
v 6.080000 0.294522 -12.160000
v 6.270000 -0.005478 -12.540000
v 2.850000 0.094522 -11.590000
v 2.850000 0.094522 -9.880000
v -0.000000 0.094522 -9.880000
v -0.000000 0.094522 -11.590000
v 6.840000 0.094522 -9.880000
v 2.850000 3.994522 -11.590000
v 2.850000 3.994522 -9.880000
v -0.000000 3.994522 -9.880000
v -0.000000 3.994522 -11.590000
v -0.000000 -0.005478 9.880000
v -0.000000 -0.005478 11.590000
v -2.280000 -0.005478 11.590000
v -2.280000 -0.005478 9.880000
v -3.230000 -0.005478 9.880000
v -3.040000 0.194522 12.540000
v -9.880000 0.194522 12.540000
v -9.880000 0.094522 9.880000
v -6.555000 0.094522 9.880000
v -0.000000 3.994522 9.880000
v -0.000000 3.994522 11.590000
v -2.280000 3.994522 11.590000
v -2.280000 3.994522 9.880000
v -3.230000 0.294522 -12.349999
v -3.230000 0.094522 -9.880000
v -6.080000 0.094522 -9.880000
v -5.700000 0.294522 -12.349999
v -0.000000 0.094522 -11.590000
v -0.000000 0.094522 -9.880000
v -2.280000 0.094522 -9.880000
v -2.280000 0.094522 -11.590000
v -0.000000 3.994522 -11.590000
v -0.000000 3.994522 -9.880000
v -9.500000 0.794522 -9.880000
v -9.500000 0.794522 -10.450000
v -2.470000 3.994522 -10.450000
v -2.280000 3.994522 -11.590000
v -9.880000 2.494522 -11.400000
v -9.880000 2.494522 -11.590000
v -3.610000 5.894522 -11.590000
v -4.750000 3.394522 -9.880000
v -5.985000 2.794522 -10.450000
v -9.880000 0.194522 0.000000
v -9.880000 0.094522 9.880000
v -11.970000 0.094522 9.880000
v -14.060000 0.094522 9.880000
v -14.440000 0.094522 9.880000
v -14.440000 0.194522 0.000000
v -14.250000 0.294522 4.940000
v -14.440000 0.194522 4.940000
v -10.925000 0.094522 4.940000
v -9.880000 0.294522 4.940000
v -10.925000 0.094522 4.940000
v -14.250000 0.294522 4.940000
v -10.450000 -0.005478 -9.880000
v -10.450000 -0.005478 -7.220000
v -11.020000 -0.005478 -7.030000
v -11.020000 -0.005478 -5.700000
v -9.880000 0.094522 -4.940000
v -9.880000 0.094522 -4.370000
v -10.260000 -0.005478 -4.180000
v -10.260000 -0.005478 -1.710000
v -9.880000 0.194522 -1.520000
v -9.880000 0.194522 0.000000
v -14.440000 0.194522 0.000000
v -14.440000 -0.005478 -9.880000
v -14.250000 -0.005478 -9.880000
v -11.780000 -0.005478 -9.880000
v -14.440000 0.294522 -4.940000
v 9.880000 0.194522 0.000000
v 9.880000 -0.005478 9.880000
v 3.800000 -0.005478 9.880000
v 3.800000 -0.005478 5.700000
v -0.000000 0.094522 5.510000
v -0.000000 0.194522 0.570000
v 3.610000 0.194522 0.570000
v 3.800000 0.194522 0.000000
v 2.850000 -0.005478 6.460000
v 2.850000 -0.005478 9.880000
v -0.000000 -0.005478 9.880000
v -0.000000 0.094522 6.460000
v 6.840000 0.094522 0.000000
v 9.880000 0.294522 4.940000
v 2.850000 7.994522 0.000000
v 2.850000 7.994522 9.880000
v -0.000000 7.994522 9.880000
v -0.000000 7.994522 0.000000
v 9.880000 -0.005478 -9.880000
v 9.880000 0.194522 0.000000
v 3.800000 0.194522 0.000000
v 3.800000 0.094522 -9.880000
v 2.850000 0.094522 -9.880000
v 2.850000 0.194522 -6.460000
v -0.000000 0.194522 -6.460000
v -0.000000 0.094522 -9.880000
v 2.850000 0.194522 -5.510000
v 2.850000 0.194522 -0.380000
v -0.000000 0.194522 -0.380000
v -0.000000 0.194522 -5.510000
v 6.840000 0.094522 -9.880000
v 9.880000 0.294522 -4.940000
v 6.840000 0.094522 0.000000
v 3.800000 0.294522 -4.940000
v 2.850000 3.994522 -9.880000
v 2.850000 3.994522 -6.460000
v -0.000000 3.994522 -6.460000
v -0.000000 3.994522 -9.880000
v 2.850000 3.994522 -5.510000
v 2.850000 3.994522 -0.570000
v -0.000000 3.994522 -0.570000
v -0.000000 3.994522 -5.510000
v -3.230000 0.094522 0.000000
v -3.040000 0.094522 0.570000
v -0.000000 0.194522 0.570000
v -0.000000 0.094522 5.510000
v -3.040000 0.094522 5.510000
v -3.230000 0.094522 6.080000
v -5.700000 0.194522 6.080000
v -5.700000 -0.005478 8.170000
v -3.230000 -0.005478 8.170000
v -3.230000 -0.005478 9.880000
v -9.880000 0.094522 9.880000
v -9.880000 0.194522 0.000000
v -0.000000 0.094522 6.460000
v -0.000000 -0.005478 9.880000
v -2.280000 -0.005478 9.880000
v -2.280000 0.094522 6.460000
v -4.180000 0.194522 6.840000
v -4.180000 0.194522 7.410000
v -4.750000 0.194522 7.410000
v -4.750000 0.194522 6.840000
v -4.465000 0.294522 3.040000
v -6.555000 0.094522 9.880000
v -4.465000 0.294522 3.040000
v -9.880000 0.294522 4.940000
v -6.555000 0.294522 0.000000
v -0.000000 7.994522 0.000000
v -0.000000 7.994522 9.880000
v -2.280000 7.994522 9.880000
v -2.280000 7.994522 0.000000
v -0.000000 3.994522 -9.880000
v -0.000000 3.994522 -6.460000
v -2.090000 3.994522 -6.460000
v -2.280000 3.994522 -7.220000
v -9.500000 0.794522 -7.220000
v -9.500000 0.794522 -9.880000
v -0.000000 0.194522 -5.510000
v -0.000000 0.194522 -0.380000
v -2.280000 0.094522 -0.380000
v -2.280000 0.194522 -5.510000
v -8.360000 0.194522 -3.420000
v -8.360000 0.194522 -2.470000
v -9.310000 0.194522 -2.470000
v -9.310000 0.194522 -3.420000
v -5.890000 2.694522 -7.220000
v -4.750000 3.394522 -9.880000
v -0.000000 0.094522 -9.880000
v -0.000000 0.194522 -6.460000
v -2.280000 0.194522 -6.460000
v -2.280000 0.094522 -9.880000
v -3.230000 0.094522 -9.880000
v -3.230000 0.094522 -0.190000
v -3.420000 0.094522 -0.380000
v -3.420000 0.094522 -2.280000
v -5.510000 0.194522 -2.470000
v -7.410000 0.194522 -2.660000
v -7.600000 0.094522 -4.370000
v -9.880000 0.094522 -4.370000
v -9.880000 0.094522 -4.940000
v -6.080000 0.094522 -5.320000
v -6.080000 0.094522 -9.880000
v -0.000000 3.994522 -5.510000
v -0.000000 3.994522 -0.570000
v -2.280000 3.994522 -0.570000
v -2.280000 3.994522 -5.510000
v -8.360000 4.194522 -3.420000
v -8.360000 4.194522 -2.470000
v -9.310000 4.194522 -2.470000
v -9.310000 4.194522 -3.420000
v -5.510000 0.194522 -0.190000
v -3.230000 0.094522 0.000000
v -9.880000 0.194522 0.000000
v -9.880000 0.194522 -1.520000
v -7.600000 0.194522 -1.520000
v -3.230000 0.294522 -5.035000
v -3.325000 0.294522 -6.080000
v -3.325000 0.294522 -6.080000
v -5.981000 0.294522 -3.899000
v -6.555000 0.294522 0.000000
v 2.850000 7.994522 9.880000
v 2.850000 7.994522 11.590000
v -0.000000 7.994522 11.590000
v -0.000000 7.994522 9.880000
v -0.000000 7.994522 9.880000
v -0.000000 7.994522 11.590000
v -2.280000 7.994522 11.590000
v -2.280000 7.994522 9.880000
v 2.850000 3.994522 6.460000
v 2.850000 3.994522 9.880000
v -0.000000 3.994522 9.880000
v -0.000000 3.994522 6.460000
v 2.850000 7.994522 -5.510000
v 2.850000 7.994522 0.000000
v -0.000000 7.994522 0.000000
v -0.000000 7.994522 -5.510000
v -0.000000 3.994522 6.460000
v -0.000000 3.994522 9.880000
v -2.280000 3.994522 9.880000
v -2.280000 3.994522 6.460000
v -0.000000 7.994522 -5.510000
v -0.000000 7.994522 0.000000
v -2.280000 7.994522 0.000000
v -2.280000 7.994522 -5.510000

f 3 2 4
f 4 2 1
f 7 6 8
f 8 6 5
f 14 12 11
f 12 14 13
f 15 9 16
f 9 15 10
f 15 11 10
f 11 15 14
f 19 18 20
f 20 18 17
f 23 21 24
f 21 23 22
f 28 26 29
f 26 28 27
f 25 21 30
f 21 25 24
f 29 25 30
f 25 29 26
f 32 31 33
f 36 35 37
f 37 35 34
f 43 38 41
f 38 43 42
f 42 40 39
f 40 42 43
f 49 48 47
f 47 48 44
f 48 49 45
f 45 49 46
f 50 52 51
f 52 54 53
f 54 52 50
f 57 56 58
f 58 56 55
f 61 60 62
f 62 60 59
f 66 65 67
f 68 67 63
f 67 73 63
f 63 73 64
f 73 67 65
f 71 70 72
f 72 70 69
f 76 75 77
f 77 75 74
f 80 79 81
f 81 79 78
f 84 86 85
f 86 83 82
f 83 86 84
f 89 88 90
f 90 88 87
f 94 92 91
f 92 94 93
f 97 96 98
f 98 96 95
f 99 103 100
f 103 99 104
f 103 108 100
f 108 109 101
f 101 109 102
f 109 108 103
f 106 105 107
f 117 116 115
f 116 117 113
f 113 117 114
f 111 118 112
f 118 119 110
f 119 118 111
f 115 120 110
f 120 121 112
f 112 121 113
f 121 120 115
f 128 126 125
f 126 128 127
f 133 136 134
f 134 136 125
f 125 136 128
f 128 136 129
f 129 136 132
f 131 129 132
f 129 131 130
f 124 123 135
f 135 123 122
f 125 124 134
f 134 124 135
f 143 141 140
f 141 143 142
f 140 149 143
f 143 149 144
f 149 150 137
f 150 140 138
f 140 150 149
f 139 138 140
f 147 146 148
f 148 146 145
f 153 152 154
f 154 152 151
f 170 167 158
f 167 168 155
f 168 169 156
f 169 170 157
f 170 168 167
f 168 170 169
f 161 160 162
f 162 160 159
f 165 164 166
f 166 164 163
f 173 172 174
f 174 172 171
f 177 176 178
f 178 176 175
f 179 199 180
f 180 199 183
f 183 185 184
f 185 183 199
f 200 186 189
f 186 188 187
f 188 186 200
f 203 201 179
f 201 202 185
f 185 202 189
f 202 203 190
f 203 202 201
f 186 185 189
f 182 181 183
f 183 181 180
f 193 192 194
f 194 192 191
f 197 196 198
f 198 196 195
f 206 205 207
f 207 205 204
f 211 209 208
f 209 211 210
f 223 211 208
f 211 223 222
f 222 213 212
f 213 222 223
f 216 215 217
f 217 215 214
f 220 219 221
f 221 219 218
f 226 225 227
f 227 225 224
f 253 252 228
f 252 231 229
f 229 231 230
f 231 252 253
f 236 234 237
f 234 236 235
f 238 254 228
f 254 237 231
f 231 237 232
f 237 254 238
f 234 255 237
f 237 255 232
f 232 255 233
f 233 255 234
f 241 240 242
f 242 240 239
f 245 244 246
f 246 244 243
f 248 230 247
f 230 248 229
f 251 249 247
f 249 251 250
f 232 251 247
f 251 232 233
f 256 247 249
f 247 256 248
f 259 258 260
f 260 258 257
f 263 262 264
f 264 262 261
f 267 266 268
f 268 266 265
f 271 270 272
f 272 270 269
f 275 274 276
f 276 274 273
f 279 278 280
f 280 278 277
